<svg width="14" height="12" viewBox="0 0 14 12" fill="none" xmlns="http://www.w3.org/2000/svg">
<path fill-rule="evenodd" clip-rule="evenodd" d="M11.0833 1.91667C11.7276 1.91667 12.2499 2.439 12.2499 3.08333L12.2499 3.66667C12.8943 3.66667 13.4166 4.189 13.4166 4.83333L13.4027 4.95988L12.2476 10.1579C12.2091 10.7675 11.7025 11.25 11.0833 11.25H1.74992C1.10559 11.25 0.583252 10.7277 0.583252 10.0833V1.91667C0.583252 1.27233 1.10559 0.75 1.74992 0.75H5.24992C5.90325 0.75 6.31913 1.02735 6.73682 1.55433C6.74838 1.56892 6.77656 1.60523 6.80776 1.64543L6.80783 1.64552C6.85183 1.70223 6.90183 1.76666 6.9197 1.78881C6.93779 1.81123 6.95303 1.82978 6.96563 1.8451C7.01694 1.9075 7.02437 1.91654 7.00096 1.91667H11.0833ZM11.0833 3.08333V3.66667H2.91659C2.23607 3.66667 1.93087 4.02918 1.76691 4.69357L1.74992 4.77002V1.91667H5.24992C5.47406 1.91667 5.60401 2.00333 5.82252 2.27901C5.82938 2.28767 5.84905 2.31303 5.87357 2.34463L5.87363 2.34471C5.92052 2.40515 5.98508 2.48837 6.01165 2.52132C6.30499 2.88495 6.57787 3.08108 6.9968 3.08332L11.0833 3.08333ZM11.0832 10.0833H1.76414L2.90269 4.95988C2.91653 4.90409 2.92864 4.86224 2.93776 4.83333H12.2357L11.0971 9.95679L11.0832 10.0833Z" fill="white"/>
</svg>
