<svg width="12" height="16" viewBox="0 0 12 16" fill="none" xmlns="http://www.w3.org/2000/svg">
<path fill-rule="evenodd" clip-rule="evenodd" d="M11.3333 0.666748V6.00008H11.3333L11.3333 6.66676L11.3333 7.33342L11.3333 8.66291C11.3391 9.67774 10.7729 9.99896 9.19423 10.472C8.26891 10.7493 7.99999 10.9016 7.99999 11.0001C7.99999 11.5118 8.04685 11.8554 8.14675 12.2551C8.12743 12.1778 8.2413 12.6181 8.26644 12.7354C8.31066 12.9417 8.33332 13.1295 8.33332 13.3334C8.33332 14.4407 7.29177 15.3334 5.99999 15.3334C4.70821 15.3334 3.66666 14.4407 3.66666 13.3334C3.66666 13.1295 3.68932 12.9417 3.73354 12.7354C3.75868 12.6181 3.87255 12.1778 3.85323 12.2551C3.95313 11.8554 3.99999 11.5118 3.99999 11.0001C3.99999 10.901 3.7318 10.749 2.80842 10.472C1.2318 9.99898 0.666656 9.67873 0.666656 8.66675V7.33342V6.00008V0.666748H11.3333ZM6.61761 7.33342H9.99999L9.99999 8.66675C10.0006 8.76705 9.73363 8.91848 8.8115 9.1948L8.80863 9.19566C7.23285 9.66785 6.66666 9.98855 6.66666 11.0001C6.66666 11.6272 6.72813 12.0781 6.85323 12.5784C6.8413 12.5307 6.94444 12.9295 6.9627 13.0148C6.98839 13.1346 6.99999 13.2307 6.99999 13.3334C6.99999 13.6547 6.59709 14.0001 5.99999 14.0001C5.40288 14.0001 4.99999 13.6547 4.99999 13.3334C4.99999 13.2307 5.01159 13.1346 5.03727 13.0148C5.05554 12.9295 5.15868 12.5307 5.14675 12.5784C5.27185 12.0781 5.33332 11.6272 5.33332 11.0001C5.33332 9.9881 4.76818 9.66785 3.19156 9.19486C2.26818 8.91785 1.99999 8.76588 1.99999 8.66675V7.33342H6.61761ZM1.99999 6.00008V2.00008H3.33332V4.66675H4.66666V2.00008H5.99999V4.00008H7.33332V2.00008H9.99999V6.00008H1.99999Z" fill="white"/>
</svg>
