<?xml version="1.0" standalone="no"?><!DOCTYPE svg PUBLIC "-//W3C//DTD SVG 1.1//EN" "http://www.w3.org/Graphics/SVG/1.1/DTD/svg11.dtd"><svg t="1620033746474" class="icon" viewBox="0 0 1024 1024" version="1.1" xmlns="http://www.w3.org/2000/svg" p-id="2249" data-spm-anchor-id="a313x.7781069.0.i7" xmlns:xlink="http://www.w3.org/1999/xlink" width="200" height="200"><defs><style type="text/css"></style></defs><path d="M810.666667 170.666667 213.333333 170.666667C166.4 170.666667 128 209.066667 128 256l0 512c0 46.933333 38.4 85.333333 85.333333 85.333333l597.333333 0c46.933333 0 85.333333-38.4 85.333333-85.333333L896 256C896 209.066667 857.6 170.666667 810.666667 170.666667zM469.333333 469.333333 405.333333 469.333333l0-21.333333-85.333333 0 0 128 85.333333 0L405.333333 554.666667 469.333333 554.666667l0 42.666667c0 25.6-17.066667 42.666667-42.666667 42.666667L298.666667 640c-25.6 0-42.666667-17.066667-42.666667-42.666667l0-170.666667c0-25.6 17.066667-42.666667 42.666667-42.666667l128 0c25.6 0 42.666667 17.066667 42.666667 42.666667L469.333333 469.333333zM768 469.333333l-64 0 0-21.333333-85.333333 0 0 128 85.333333 0L704 554.666667 768 554.666667l0 42.666667c0 25.6-17.066667 42.666667-42.666667 42.666667l-128 0c-25.6 0-42.666667-17.066667-42.666667-42.666667l0-170.666667c0-25.6 17.066667-42.666667 42.666667-42.666667l128 0c25.6 0 42.666667 17.066667 42.666667 42.666667L768 469.333333z" p-id="2250" data-spm-anchor-id="a313x.7781069.0.i6" class="" fill="#ffffff"></path></svg>