<svg width="60" height="66" viewBox="0 0 60 66" fill="none" xmlns="http://www.w3.org/2000/svg">
<path d="M25.6869 53.4501L18.1981 65.4113C17.6997 66.1877 16.5581 66.2048 16.1022 65.4028L10.0703 54.1369C9.95102 53.9236 9.82749 53.7103 9.65283 53.5269C15.0075 53.9449 20.3451 53.9449 25.6869 53.4501Z" fill="#5956FF"/>
<path d="M15.574 0H44.426C53.0266 0 60 6.98307 60 15.5957V43.5834C60 52.196 53.0266 59.179 44.426 59.179H15.574C6.97338 59.1748 0 52.196 0 43.5791V15.5957C0 6.98307 6.97338 0 15.574 0Z" fill="#5956FF"/>
<path opacity="0.24" d="M14.8583 40.4779C13.8999 39.2195 13.1033 37.8288 12.5069 36.3358C11.6336 34.1773 11.1693 31.8141 11.2076 29.3357C11.3269 20.2752 18.2236 12.8229 26.9563 11.7223C27.8296 11.6072 28.7199 11.5645 29.6272 11.5858C30.2918 11.5986 30.9478 11.6541 31.591 11.7437C31.7316 11.7607 31.8764 11.7821 32.017 11.8034C32.1533 11.8247 32.2939 11.8503 32.4302 11.8759C32.4345 11.8759 32.4387 11.8802 32.4387 11.8759C32.7156 11.9271 32.984 11.9868 33.2524 12.0465C33.2609 12.0508 33.2652 12.0508 33.2737 12.0508C33.5122 12.1063 33.7465 12.166 33.9808 12.23C33.9808 12.23 33.9851 12.23 33.9893 12.23C34.2194 12.2939 34.4494 12.3665 34.6752 12.4347C37.8999 13.4713 40.7241 15.3909 42.8669 17.912C42.8967 17.9418 42.9222 17.9802 42.9521 18.0101C43.2588 18.3769 43.5527 18.7523 43.8296 19.1405C44.4174 19.9638 44.6943 20.9065 44.6943 21.845C44.6943 23.4831 43.8424 25.0955 42.3003 25.9828C40.7369 26.8871 38.8626 26.8018 37.4142 25.9018C37.0862 25.697 36.8179 25.4112 36.5836 25.0998C36.0553 24.3917 35.459 23.739 34.8072 23.1546L34.7987 23.1461C34.5303 22.9456 34.2534 22.7579 33.968 22.5873C33.9595 22.5787 33.951 22.5745 33.9382 22.5659C33.3844 22.1905 32.7838 21.8791 32.1448 21.6445C30.9776 21.2094 29.6869 21.026 28.3408 21.1582C24.2811 21.5549 21.0479 24.8822 20.7497 28.9603C20.3834 33.9385 24.3024 38.0891 29.197 38.0891C32.017 38.0891 34.5175 36.7069 36.0596 34.5869C36.8519 33.4991 38.0064 32.8251 39.2417 32.6331C39.4803 32.5947 39.7188 32.5777 39.9616 32.5777C40.0383 32.5777 40.115 32.5819 40.1917 32.5862C40.9201 32.6203 41.6485 32.8251 42.3173 33.2133C44.7625 34.6253 45.4441 37.8416 43.7955 40.1281C40.5282 44.6626 35.2076 47.6145 29.197 47.6145C27.246 47.6145 25.3716 47.3031 23.6081 46.7272C23.6038 46.7272 23.5995 46.7272 23.5995 46.723C22.049 46.2196 20.5964 45.5072 19.2673 44.62C19.0032 44.4408 18.7476 44.2616 18.4877 44.0739L18.4835 44.0654C17.1161 43.0544 15.902 41.8472 14.8711 40.4907" fill="url(#paint0_linear)"/>
<path opacity="0.3" d="M15.9958 40.4779C15.0373 39.2195 14.2407 37.8288 13.6443 36.3358C12.7711 34.1773 12.3068 31.8141 12.3451 29.3357C12.4644 20.2752 19.3611 12.8229 28.0938 11.7223C28.967 11.6072 29.8573 11.5645 30.7647 11.5858C31.4292 11.5986 32.0852 11.6541 32.7285 11.7437C32.8691 11.7607 33.0139 11.7821 33.1545 11.8034C33.2908 11.8247 33.4314 11.8503 33.5677 11.8759C33.5719 11.8759 33.5762 11.8802 33.5762 11.8759C33.8531 11.9271 34.1215 11.9868 34.3898 12.0465C34.3983 12.0508 34.4026 12.0508 34.4111 12.0508C34.6497 12.1063 34.884 12.166 35.1183 12.23C35.1183 12.23 35.1225 12.23 35.1268 12.23C35.3568 12.2939 35.5868 12.3665 35.8126 12.4347C39.0373 13.4713 41.8616 15.3909 44.0043 17.912C44.0341 17.9418 44.0597 17.9802 44.0895 18.0101C44.3962 18.3769 44.6901 18.7523 44.967 19.1405C45.5549 19.9638 45.8318 20.9065 45.8318 21.845C45.8318 23.4831 44.9798 25.0955 43.4377 25.9828C41.8744 26.8871 40 26.8018 38.5517 25.9018C38.2237 25.697 37.9553 25.4112 37.721 25.0998C37.1928 24.3917 36.5964 23.739 35.9447 23.1546L35.9362 23.1461C35.6678 22.9456 35.3909 22.7579 35.1055 22.5873C35.097 22.5787 35.0884 22.5745 35.0757 22.5659C34.5219 22.1905 33.9212 21.8791 33.2823 21.6445C32.1151 21.2094 30.8243 21.026 29.4782 21.1582C25.4186 21.5549 22.1854 24.8822 21.8872 28.9603C21.5208 33.9385 25.4399 38.0891 30.3344 38.0891C33.1545 38.0891 35.655 36.7069 37.1971 34.5869C37.9894 33.4991 39.1438 32.8251 40.3792 32.6331C40.6177 32.5947 40.8563 32.5777 41.0991 32.5777C41.1758 32.5777 41.2524 32.5819 41.3291 32.5862C42.0576 32.6203 42.786 32.8251 43.4548 33.2133C45.8999 34.6253 46.5815 37.8416 44.933 40.1281C41.6657 44.6626 36.3451 47.6145 30.3344 47.6145C28.3834 47.6145 26.5091 47.3031 24.7455 46.7272C24.7413 46.7272 24.737 46.7272 24.737 46.723C23.1864 46.2196 21.7338 45.5072 20.4047 44.62C20.1406 44.4408 19.885 44.2616 19.6252 44.0739L19.6209 44.0654C18.2535 43.0544 17.0395 41.8472 16.0086 40.4907" fill="url(#paint1_linear)"/>
<path d="M44.7157 33.1962C44.0426 32.808 43.3142 32.6033 42.5857 32.5692C42.5091 32.5649 42.4324 32.5649 42.3557 32.5649C42.1129 32.5649 41.8701 32.582 41.6358 32.6203C40.4004 32.808 39.2418 33.4863 38.4537 34.5741C36.9116 36.6984 34.4111 38.0805 31.5911 38.0805C26.7008 38.0805 22.7774 33.9299 23.1438 28.9518C23.442 24.878 26.6752 21.5507 30.7391 21.1497C32.0852 21.0175 33.3717 21.2009 34.5389 21.636C32.9542 20.9663 31.2162 20.5951 29.3887 20.5951C22.066 20.5951 16.1278 26.5416 16.1278 33.8745C16.1278 36.6046 16.95 39.1427 18.36 41.25C19.0628 42.2994 19.9063 43.2421 20.8733 44.0526L20.8775 44.0569C21.1331 44.2488 21.393 44.428 21.6571 44.6072C22.9904 45.4944 24.4388 46.2068 25.9894 46.7102C25.9936 46.7102 25.9979 46.7102 26.0021 46.7144C27.7615 47.2903 29.6401 47.6017 31.5911 47.6017C37.5975 47.6017 42.918 44.6498 46.1853 40.1196C47.8381 37.8246 47.1566 34.6082 44.7157 33.1962Z" fill="url(#paint2_linear)"/>
<path d="M37.2566 23.1802C36.9669 22.9669 36.6687 22.7621 36.362 22.5745C36.3535 22.5702 36.3407 22.5617 36.3322 22.5531C35.7784 22.1777 35.1735 21.8663 34.5388 21.6275C32.9541 20.9577 31.2161 20.5866 29.3886 20.5866C22.0659 20.5866 16.1277 26.5331 16.1277 33.866C16.1277 36.596 16.9499 39.1342 18.3599 41.2415C19.0628 42.2908 19.9062 43.2336 20.8732 44.0441C19.51 43.0331 18.2917 41.8259 17.2651 40.4694C15.8508 38.3535 15.0244 35.8026 15.0244 33.064C15.0244 25.7013 20.9839 19.7335 28.3364 19.7335C31.7656 19.742 34.8966 21.043 37.2566 23.1802Z" fill="#A1FADA"/>
<path d="M47.0926 21.8407C47.0926 23.4788 46.2364 25.0913 44.6986 25.9828C42.9393 27.0023 40.7881 26.7677 39.2886 25.5221C36.8903 22.0327 32.869 19.742 28.3195 19.742C20.967 19.742 15.0075 25.7098 15.0075 33.0725C15.0075 35.8111 15.8339 38.3578 17.2481 40.4779C16.2897 39.2152 15.4973 37.8246 14.8967 36.3358C14.0234 34.1774 13.5591 31.8141 13.5932 29.3357C13.7295 19.3709 22.0532 11.3555 32.0043 11.5858C37.3589 11.7138 42.1342 14.1794 45.3461 18.0058C45.6528 18.3684 45.9467 18.7481 46.2236 19.1405C46.8158 19.9595 47.0926 20.9065 47.0926 21.8407Z" fill="url(#paint3_linear)"/>
<path opacity="0.27" d="M45.3637 18.0058C44.7204 17.3617 44.0261 16.7645 43.2891 16.2227C42.8887 15.9284 42.4755 15.6468 42.0538 15.3866C42.041 15.3781 42.0282 15.3696 42.0112 15.361C41.2231 14.8747 40.3967 14.4482 39.5362 14.0856C37.3509 13.1599 34.9484 12.648 32.4265 12.648C22.3136 12.648 14.1219 20.8553 14.1219 30.9823C14.1219 32.8422 14.3988 34.6423 14.9143 36.3358C14.041 34.1774 13.5767 31.8141 13.6108 29.3357C13.7471 19.3709 22.0708 11.3555 32.0218 11.5858C37.3765 11.7095 42.1518 14.1794 45.3637 18.0058Z" fill="white"/>
<path d="M31.05 32.6886C32.7604 32.6886 34.1469 31.3001 34.1469 29.5874C34.1469 27.8746 32.7604 26.4862 31.05 26.4862C29.3397 26.4862 27.9531 27.8746 27.9531 29.5874C27.9531 31.3001 29.3397 32.6886 31.05 32.6886Z" fill="white"/>
<defs>
<linearGradient id="paint0_linear" x1="11.2047" y1="29.5879" x2="44.7008" y2="29.5879" gradientUnits="userSpaceOnUse">
<stop stop-color="#9BFAD8"/>
<stop offset="1" stop-color="#5956FF"/>
</linearGradient>
<linearGradient id="paint1_linear" x1="12.3399" y1="29.5879" x2="45.836" y2="29.5879" gradientUnits="userSpaceOnUse">
<stop stop-color="#9BFAD8"/>
<stop offset="1" stop-color="#5956FF"/>
</linearGradient>
<linearGradient id="paint2_linear" x1="15.4663" y1="24.3109" x2="47.2536" y2="46.4152" gradientUnits="userSpaceOnUse">
<stop stop-color="#9BFAD8"/>
<stop offset="0.4902" stop-color="white"/>
</linearGradient>
<linearGradient id="paint3_linear" x1="29.2371" y1="23.4953" x2="21.6047" y2="0.702462" gradientUnits="userSpaceOnUse">
<stop stop-color="#9BFAD8"/>
<stop offset="1" stop-color="white"/>
</linearGradient>
</defs>
</svg>
