<svg width="14" height="14" viewBox="0 0 14 14" fill="none" xmlns="http://www.w3.org/2000/svg">
<path fill-rule="evenodd" clip-rule="evenodd" d="M8.24694 8.07398C7.17985 7.66876 6.33114 6.82005 5.92593 5.75296L1.86572 11.5895L2.4104 12.1342L8.24694 8.07398ZM5.71266 3.72471C6.00577 1.80438 7.66441 0.333252 9.66666 0.333252C11.8758 0.333252 13.6667 2.12411 13.6667 4.33325C13.6667 6.33551 12.1955 7.99417 10.2752 8.28726L2.25625 13.8656L0.134262 11.7437L5.71266 3.72471ZM12.0145 5.59879C12.2179 5.22226 12.3333 4.79124 12.3333 4.33325C12.3333 2.86049 11.1394 1.66659 9.66666 1.66659C9.20423 1.66659 8.76929 1.78429 8.39017 1.99138C8.59184 2.62067 9.28545 3.6759 9.80474 4.19518C10.3155 4.70598 11.3525 5.38411 12.0145 5.59879ZM11.0221 6.63026C10.6249 6.86513 10.1615 6.99992 9.66666 6.99992C8.1939 6.99992 7 5.80601 7 4.33325C7 3.84288 7.13236 3.38342 7.3633 2.98865C7.73443 3.77797 8.32992 4.60598 8.86193 5.13799C9.38711 5.66318 10.2226 6.25728 11.0221 6.63026Z" fill="#A09EF3"/>
</svg>
