<svg width="76" height="60" viewBox="0 0 76 60" fill="none" xmlns="http://www.w3.org/2000/svg">
<path d="M63.3217 19.9364C59.8092 5.94356 45.6185 -2.55237 31.6256 0.960171C20.6905 3.70522 12.7504 13.1562 11.9323 24.4008C4.16798 25.6812 -1.08835 33.0134 0.192077 40.7777C1.33032 47.6804 7.3114 52.7354 14.3071 52.7077H26.1808V47.9582H14.3071C9.06099 47.9582 4.80813 43.7053 4.80813 38.4592C4.80813 33.2131 9.06099 28.9603 14.3071 28.9603C15.6187 28.9603 16.6818 27.8971 16.6818 26.5855C16.67 14.7817 26.2293 5.20324 38.0331 5.19151C48.251 5.18127 57.0469 12.4049 59.0234 22.4297C59.2186 23.4307 60.0309 24.1954 61.042 24.3295C67.5342 25.2541 72.0476 31.2664 71.1232 37.7585C70.2931 43.5882 65.3156 47.9288 59.4271 47.9582H49.9282V52.7077H59.4271C68.6079 52.6799 76.0278 45.2149 75.9999 36.0342C75.9767 28.392 70.7458 21.75 63.3217 19.9364Z" fill="#5956FF"/>
<path d="M36.3683 29.6491L26.8694 39.1481L30.2178 42.4964L35.6797 37.0583V59.832H40.4291V37.0583L45.8673 42.4964L49.2157 39.1481L39.7167 29.6491C38.7904 28.7283 37.2946 28.7283 36.3683 29.6491Z" fill="#5956FF"/>
</svg>
