<svg width="27" height="27" viewBox="0 0 27 27" fill="none" xmlns="http://www.w3.org/2000/svg">
<rect width="27" height="27" rx="4" fill="#BFFBE6"/>
<path fill-rule="evenodd" clip-rule="evenodd" d="M11.5 11.809L13.5 10.809V16.191L11.5 15.191V11.809ZM10.882 11L14.5 9.19098V17.809L10.8819 16H9C8.44772 16 8 15.5523 8 15V12C8 11.4477 8.44772 11 9 11H10.882ZM10.5 12H9V15H10.5V12ZM17.3395 9.22834C18.3568 10.2404 19 11.784 19 13.5C19 15.2159 18.3568 16.7596 17.3395 17.7716L16.5516 17.1412C17.4244 16.3268 18 15.0061 18 13.5C18 11.9939 17.4244 10.6732 16.5516 9.85872L17.3395 9.22834ZM17 13.5C17 12.2947 16.5324 11.2062 15.7874 10.4701L14.9986 11.1011C15.6036 11.6459 16 12.5128 16 13.5C16 14.4872 15.6036 15.3541 14.9986 15.8989L15.7874 16.5299C16.5324 15.7938 17 14.7053 17 13.5Z" fill="#4AD4A4"/>
</svg>
