<svg id="Capa_1" enable-background="new 0 0 512.071 512.071" height="512" viewBox="0 0 512.071 512.071" width="512" xmlns="http://www.w3.org/2000/svg"><g><path d="m256.036 0-20 224.998 20 287.073 66.801-60.071h189.199v-452z" fill="#198080"/><path d="m.036 0v452h189.198l66.802 60.071v-512.071z" fill="#24b3b3"/><path d="m437.036 75h-181l-20 151 20 151h181z" fill="#0f244d"/><path d="m75.036 75h181v302h-181z" fill="#194d80"/><path d="m407.036 105h-151l-20 121 20 121h151z" fill="#ece6f2"/><path d="m105.036 105h151v242h-151z" fill="#fff5f5"/><path d="m360.036 301h-89v-150h89v30h-59v90h59z" fill="#0f244d"/><path d="m241.036 301h-89v-150h89v30h-59v90h59z" fill="#194d80"/></g></svg>