<svg width="146" height="50" viewBox="0 0 146 50" fill="none" xmlns="http://www.w3.org/2000/svg">
<g clip-path="url(#clip0)">
<path d="M18.9966 40.4925L13.4583 49.554C13.0897 50.1422 12.2454 50.1551 11.9083 49.5476L7.44741 41.0128C7.3592 40.8512 7.26784 40.6896 7.13867 40.5507C11.0987 40.8674 15.0461 40.8674 18.9966 40.4925Z" fill="#5956FF"/>
<path d="M11.5177 0H32.855C39.2156 0 44.3727 5.2902 44.3727 11.8149V33.0177C44.3727 39.5424 39.2156 44.8326 32.855 44.8326H11.5177C5.15713 44.8294 0 39.5424 0 33.0145V11.8149C0 5.2902 5.15713 0 11.5177 0Z" fill="#5956FF"/>
<path opacity="0.24" d="M10.9885 30.6651C10.2796 29.7117 9.69052 28.6582 9.24947 27.5272C8.60365 25.8919 8.26026 24.1016 8.28861 22.224C8.37682 15.36 13.4772 9.71433 19.9355 8.88056C20.5813 8.79331 21.2397 8.76099 21.9107 8.77715C22.4022 8.78685 22.8874 8.82886 23.3631 8.89672C23.467 8.90965 23.5741 8.92581 23.6781 8.94196C23.7789 8.95812 23.8829 8.97751 23.9837 8.9969C23.9868 8.9969 23.99 9.00013 23.99 8.9969C24.1948 9.03568 24.3932 9.08092 24.5917 9.12617C24.598 9.1294 24.6011 9.1294 24.6074 9.1294C24.7839 9.17141 24.9571 9.21665 25.1304 9.26513C25.1304 9.26513 25.1336 9.26513 25.1367 9.26513C25.3068 9.3136 25.4769 9.36854 25.6439 9.42025C28.0287 10.2055 30.1174 11.6598 31.702 13.5697C31.7241 13.5923 31.743 13.6214 31.7651 13.644C31.9919 13.9219 32.2093 14.2063 32.414 14.5004C32.8488 15.1241 33.0535 15.8383 33.0535 16.5493C33.0535 17.7902 32.4235 19.0118 31.283 19.684C30.1269 20.3691 28.7407 20.3044 27.6696 19.6226C27.427 19.4674 27.2285 19.2509 27.0553 19.015C26.6646 18.4785 26.2236 17.9841 25.7416 17.5414L25.7353 17.5349C25.5368 17.383 25.332 17.2408 25.121 17.1116C25.1147 17.1051 25.1084 17.1019 25.0989 17.0954C24.6894 16.811 24.2452 16.5751 23.7726 16.3974C22.9094 16.0677 21.9548 15.9288 20.9593 16.029C17.957 16.3295 15.5659 18.8502 15.3454 21.9396C15.0745 25.711 17.9728 28.8554 21.5926 28.8554C23.6781 28.8554 25.5274 27.8083 26.6678 26.2022C27.2537 25.3781 28.1075 24.8675 29.0211 24.7221C29.1975 24.693 29.3739 24.6801 29.5535 24.6801C29.6102 24.6801 29.6669 24.6833 29.7236 24.6865C30.2623 24.7124 30.801 24.8675 31.2956 25.1616C33.104 26.2313 33.608 28.6679 32.3888 30.4001C29.9725 33.8353 26.0377 36.0716 21.5926 36.0716C20.1497 36.0716 18.7635 35.8357 17.4593 35.3994C17.4561 35.3994 17.453 35.3994 17.453 35.3962C16.3063 35.0149 15.232 34.4752 14.2491 33.803C14.0538 33.6673 13.8647 33.5315 13.6726 33.3894L13.6694 33.3829C12.6582 32.617 11.7603 31.7024 10.9979 30.6748" fill="url(#paint0_linear)"/>
<path opacity="0.3" d="M11.8295 30.6651C11.1207 29.7117 10.5316 28.6582 10.0905 27.5272C9.44471 25.8919 9.10132 24.1016 9.12968 22.224C9.21789 15.36 14.3183 9.71433 20.7765 8.88056C21.4224 8.79331 22.0808 8.76099 22.7518 8.77715C23.2433 8.78685 23.7284 8.82886 24.2041 8.89672C24.3081 8.90965 24.4152 8.92581 24.5192 8.94196C24.62 8.95812 24.7239 8.97751 24.8247 8.9969C24.8279 8.9969 24.831 9.00013 24.831 8.9969C25.0358 9.03568 25.2343 9.08092 25.4328 9.12617C25.4391 9.1294 25.4422 9.1294 25.4485 9.1294C25.6249 9.17141 25.7982 9.21665 25.9715 9.26513C25.9715 9.26513 25.9746 9.26513 25.9778 9.26513C26.1479 9.3136 26.318 9.36854 26.485 9.42025C28.8698 10.2055 30.9585 11.6598 32.5431 13.5697C32.5652 13.5923 32.5841 13.6214 32.6061 13.644C32.8329 13.9219 33.0503 14.2063 33.2551 14.5004C33.6898 15.1241 33.8946 15.8383 33.8946 16.5493C33.8946 17.7902 33.2645 19.0118 32.1241 19.684C30.9679 20.3691 29.5818 20.3044 28.5107 19.6226C28.2681 19.4674 28.0696 19.2509 27.8963 19.015C27.5057 18.4785 27.0646 17.9841 26.5826 17.5414L26.5763 17.5349C26.3779 17.383 26.1731 17.2408 25.962 17.1116C25.9557 17.1051 25.9494 17.1019 25.94 17.0954C25.5304 16.811 25.0862 16.5751 24.6137 16.3974C23.7505 16.0677 22.7959 15.9288 21.8004 16.029C18.7981 16.3295 16.407 18.8502 16.1865 21.9396C15.9155 25.711 18.8139 28.8554 22.4336 28.8554C24.5192 28.8554 26.3684 27.8083 27.5088 26.2022C28.0948 25.3781 28.9486 24.8675 29.8622 24.7221C30.0386 24.693 30.215 24.6801 30.3946 24.6801C30.4513 24.6801 30.508 24.6833 30.5647 24.6865C31.1034 24.7124 31.6421 24.8675 32.1367 25.1616C33.945 26.2313 34.4491 28.6679 33.2299 30.4001C30.8136 33.8353 26.8788 36.0716 22.4336 36.0716C20.9908 36.0716 19.6046 35.8357 18.3004 35.3994C18.2972 35.3994 18.2941 35.3994 18.2941 35.3962C17.1473 35.0149 16.0731 34.4752 15.0901 33.803C14.8948 33.6673 14.7058 33.5315 14.5136 33.3894L14.5105 33.3829C13.4992 32.617 12.6014 31.7024 11.839 30.6748" fill="url(#paint1_linear)"/>
<path d="M33.0693 25.1487C32.5715 24.8546 32.0328 24.6995 31.4941 24.6736C31.4374 24.6704 31.3807 24.6704 31.324 24.6704C31.1444 24.6704 30.9648 24.6833 30.7916 24.7124C29.878 24.8546 29.0211 25.3684 28.4382 26.1925C27.2978 27.8018 25.4486 28.8489 23.363 28.8489C19.7464 28.8489 16.8449 25.7045 17.1159 21.9332C17.3364 18.847 19.7275 16.3263 22.733 16.0225C23.7285 15.9223 24.6799 16.0613 25.5431 16.3909C24.3711 15.8835 23.0858 15.6024 21.7343 15.6024C16.3188 15.6024 11.9272 20.1073 11.9272 25.6625C11.9272 27.7308 12.5353 29.6536 13.578 31.25C14.0978 32.045 14.7216 32.7592 15.4367 33.3732L15.4399 33.3764C15.6289 33.5219 15.8211 33.6576 16.0164 33.7933C17.0025 34.4655 18.0736 35.0052 19.2203 35.3865C19.2235 35.3865 19.2266 35.3865 19.2298 35.3897C20.5309 35.826 21.9202 36.0619 23.363 36.0619C27.805 36.0619 31.7398 33.8256 34.1561 30.3936C35.3785 28.655 34.8744 26.2183 33.0693 25.1487Z" fill="url(#paint2_linear)"/>
<path d="M27.553 17.5608C27.3388 17.3992 27.1183 17.2441 26.8914 17.1019C26.8851 17.0986 26.8757 17.0922 26.8694 17.0857C26.4598 16.8013 26.0125 16.5654 25.5431 16.3844C24.3712 15.8771 23.0858 15.5959 21.7343 15.5959C16.3189 15.5959 11.9273 20.1008 11.9273 25.656C11.9273 27.7243 12.5353 29.6471 13.5781 31.2436C14.0979 32.0385 14.7216 32.7527 15.4368 33.3667C14.4286 32.6008 13.5276 31.6863 12.7684 30.6586C11.7225 29.0557 11.1113 27.1232 11.1113 25.0485C11.1113 19.4707 15.5187 14.9496 20.9562 14.9496C23.4922 14.9561 25.8077 15.9417 27.553 17.5608Z" fill="#A1FADA"/>
<path d="M34.8272 16.546C34.8272 17.787 34.194 19.0085 33.0567 19.684C31.7556 20.4563 30.1647 20.2786 29.0557 19.3349C27.2821 16.6915 24.3082 14.9561 20.9436 14.9561C15.5061 14.9561 11.0987 19.4771 11.0987 25.0549C11.0987 27.1297 11.7099 29.059 12.7558 30.6651C12.047 29.7085 11.461 28.655 11.0168 27.5272C10.371 25.8919 10.0276 24.1016 10.0528 22.224C10.1536 14.6749 16.3094 8.60264 23.6686 8.77715C27.6286 8.8741 31.1602 10.742 33.5355 13.6408C33.7624 13.9155 33.9797 14.2031 34.1845 14.5004C34.6224 15.1209 34.8272 15.8383 34.8272 16.546Z" fill="url(#paint3_linear)"/>
<path opacity="0.27" d="M33.549 13.6408C33.0733 13.1528 32.5598 12.7004 32.0148 12.2899C31.7186 12.067 31.413 11.8537 31.1012 11.6565C31.0917 11.6501 31.0823 11.6436 31.0696 11.6372C30.4868 11.2687 29.8757 10.9456 29.2393 10.6709C27.6232 9.96963 25.8464 9.58183 23.9814 9.58183C16.5024 9.58183 10.4443 15.7995 10.4443 23.4714C10.4443 24.8804 10.6491 26.2442 11.0302 27.5272C10.3844 25.8919 10.041 24.1016 10.0662 22.224C10.167 14.6749 16.3228 8.60264 23.6821 8.77715C27.6421 8.87087 31.1736 10.742 33.549 13.6408Z" fill="white"/>
<path d="M22.9629 24.7641C24.2278 24.7641 25.2532 23.7122 25.2532 22.4147C25.2532 21.1171 24.2278 20.0653 22.9629 20.0653C21.698 20.0653 20.6726 21.1171 20.6726 22.4147C20.6726 23.7122 21.698 24.7641 22.9629 24.7641Z" fill="white"/>
<path d="M57.5443 29.8119C55.5281 27.7113 54.5326 25.1034 54.5326 22.014C54.5326 18.9245 55.5281 16.3133 57.5443 14.2451C59.5606 12.1445 62.106 11.0942 65.1776 11.0942C68.832 11.0942 72.1651 12.9524 73.9514 15.9546L69.9158 18.3557C69.0085 16.7044 67.2537 15.7769 65.1776 15.7769C63.3662 15.7769 61.9013 16.3457 60.8207 17.4864C59.7401 18.6272 59.214 20.1267 59.214 22.0172C59.214 23.9077 59.7401 25.4072 60.8207 26.548C61.9013 27.6887 63.3662 28.2575 65.1776 28.2575C67.2537 28.2575 69.0652 27.2686 69.9158 25.6786L73.9514 28.0798C72.1966 31.0787 68.8919 32.9401 65.1776 32.9401C62.106 32.9337 59.5637 31.8834 57.5443 29.8119Z" fill="#5956FF"/>
<path d="M86.7575 17.5155H91.1428V32.5136H86.7575V31.1046C85.7336 32.3358 84.2719 32.9337 82.4005 32.9337C80.4694 32.9337 78.8343 32.1839 77.4576 30.6554C76.0841 29.1268 75.4099 27.2363 75.4099 25.0162C75.4099 22.796 76.0809 20.9378 77.4576 19.406C78.8312 17.8775 80.4694 17.0954 82.4005 17.0954C84.2719 17.0954 85.7336 17.6965 86.7575 18.9245V17.5155ZM83.2795 28.6744C84.3034 28.6744 85.1508 28.3448 85.7935 27.6855C86.4362 27.0262 86.7575 26.1246 86.7575 25.0162C86.7575 23.9077 86.4362 23.0061 85.7935 22.3468C85.1508 21.6876 84.3034 21.3579 83.2795 21.3579C82.2556 21.3579 81.4082 21.6876 80.7655 22.3468C80.1228 23.0061 79.8015 23.9077 79.8015 25.0162C79.8015 26.1246 80.1228 27.0262 80.7655 27.6855C81.4082 28.3415 82.2556 28.6744 83.2795 28.6744Z" fill="#5956FF"/>
<path d="M108.045 19.406C109.418 20.9346 110.092 22.796 110.092 25.0162C110.092 27.2363 109.418 29.1268 108.045 30.6554C106.671 32.1839 105.033 32.9337 103.102 32.9337C101.23 32.9337 99.7685 32.3326 98.7447 31.1046V38.5147H94.3594V17.5155H98.7447V18.9245C99.7685 17.6933 101.23 17.0954 103.102 17.0954C105.033 17.0954 106.671 17.8742 108.045 19.406ZM102.226 28.6744C103.25 28.6744 104.069 28.3447 104.711 27.6855C105.386 27.0262 105.707 26.1246 105.707 25.0162C105.707 23.9077 105.386 23.0061 104.711 22.3468C104.069 21.6876 103.25 21.3579 102.226 21.3579C101.202 21.3579 100.383 21.6876 99.7118 22.3468C99.0692 23.0061 98.7478 23.9077 98.7478 25.0162C98.7478 26.1246 99.0692 27.0262 99.7118 27.6855C100.383 28.3415 101.202 28.6744 102.226 28.6744Z" fill="#5956FF"/>
<path d="M120.854 21.833H117.842V27.1426C117.842 28.3415 118.718 28.5516 120.854 28.432V32.5103C118.075 32.8109 116.147 32.5394 115.063 31.6992C113.983 30.8299 113.457 29.3304 113.457 27.1394V21.833H111.116V17.5155H113.457V14.6652L117.842 13.3144V17.5155H120.854V21.833Z" fill="#5956FF"/>
<path d="M123.629 17.5155V32.5136H128.015V17.5155H123.629Z" fill="#5956FF"/>
<path d="M125.838 16.197C127.266 16.197 128.424 15.041 128.424 13.6149C128.424 12.1889 127.266 11.0328 125.838 11.0328C124.409 11.0328 123.251 12.1889 123.251 13.6149C123.251 15.041 124.409 16.197 125.838 16.197Z" fill="#7EE0C4"/>
<path d="M138.253 32.9337C136.089 32.9337 134.246 32.1839 132.756 30.6554C131.266 29.1268 130.503 27.2363 130.503 25.0162C130.503 22.796 131.263 20.9378 132.756 19.406C134.246 17.8775 136.089 17.0954 138.253 17.0954C140.418 17.0954 142.261 17.8742 143.751 19.406C145.241 20.9346 146.003 22.796 146.003 25.0162C146.003 27.2363 145.244 29.1268 143.751 30.6554C142.257 32.1839 140.414 32.9337 138.253 32.9337ZM138.253 28.5516C139.217 28.5516 140.008 28.222 140.651 27.5627C141.293 26.9034 141.615 26.0632 141.615 25.0129C141.615 23.9626 141.293 23.1224 140.651 22.4632C140.008 21.8039 139.217 21.4743 138.253 21.4743C137.289 21.4743 136.499 21.8039 135.856 22.4632C135.213 23.1224 134.892 23.9626 134.892 25.0129C134.892 26.0632 135.213 26.9034 135.856 27.5627C136.499 28.222 137.286 28.5516 138.253 28.5516Z" fill="#5956FF"/>
</g>
<defs>
<linearGradient id="paint0_linear" x1="8.28647" y1="22.4151" x2="33.0584" y2="22.4151" gradientUnits="userSpaceOnUse">
<stop stop-color="#9BFAD8"/>
<stop offset="1" stop-color="#5956FF"/>
</linearGradient>
<linearGradient id="paint1_linear" x1="9.12583" y1="22.4151" x2="33.8977" y2="22.4151" gradientUnits="userSpaceOnUse">
<stop stop-color="#9BFAD8"/>
<stop offset="1" stop-color="#5956FF"/>
</linearGradient>
<linearGradient id="paint2_linear" x1="11.438" y1="18.4174" x2="35.3122" y2="34.6239" gradientUnits="userSpaceOnUse">
<stop stop-color="#9BFAD8"/>
<stop offset="0.4902" stop-color="white"/>
</linearGradient>
<linearGradient id="paint3_linear" x1="21.6222" y1="17.7995" x2="15.7285" y2="0.617677" gradientUnits="userSpaceOnUse">
<stop stop-color="#9BFAD8"/>
<stop offset="1" stop-color="white"/>
</linearGradient>
<clipPath id="clip0">
<rect width="146" height="50" fill="white"/>
</clipPath>
</defs>
</svg>
